<svg width="35" height="33" viewBox="0 0 35 33" fill="none" xmlns="http://www.w3.org/2000/svg">
<g clip-path="url(#clip0)">
<path d="M34.1439 16.7506C34.4968 8.01569 27.4013 0.668707 18.2955 0.340588C9.18968 0.0124682 1.52186 6.82747 1.16892 15.5623C0.849947 23.4564 6.61476 30.2168 14.4489 31.6873L14.8955 20.6354L10.7092 20.4845L10.894 15.9128L15.0802 16.0636L15.221 12.5792C15.3812 8.61533 17.9312 6.51452 21.6972 6.65023C23.5005 6.71521 25.3754 7.09212 25.3754 7.09212L25.2182 10.9843L23.1392 10.9094C21.0911 10.8356 20.403 12.0318 20.3524 13.2838L20.2326 16.2493L24.8053 16.414L23.8896 20.9595L20.0478 20.821L19.6013 31.873C27.5313 30.9705 33.8249 24.6446 34.1439 16.7506Z" fill="white"/>
</g>
<defs>
<clipPath id="clip0">
<rect width="31.6537" height="33" fill="white" transform="translate(33.8314) rotate(89.1785)"/>
</clipPath>
</defs>
</svg>
