<svg width="35" height="40" viewBox="0 0 35 40" fill="none" xmlns="http://www.w3.org/2000/svg">
<line x1="1" y1="39.5" x2="34" y2="39.5" stroke="white"/>
<path d="M10.9005 26.9063C23.9728 26.9063 31.1248 16.5892 31.1248 7.64509C31.1248 7.35505 31.118 7.05857 31.1045 6.76853C32.4957 5.81029 33.6964 4.62338 34.65 3.26357C33.3543 3.81261 31.9785 4.17118 30.5698 4.32704C32.0531 3.48028 33.1637 2.15005 33.6958 0.58296C32.3004 1.37055 30.7744 1.92612 29.1832 2.22587C28.111 1.14093 26.6935 0.422565 25.1497 0.181851C23.6059 -0.0588642 22.0218 0.191475 20.6424 0.894163C19.2629 1.59685 18.165 2.71275 17.5182 4.06933C16.8715 5.42592 16.712 6.94763 17.0644 8.39919C14.239 8.26416 11.4748 7.56512 8.95122 6.34742C6.42761 5.12971 4.20087 3.42051 2.41535 1.33062C1.50785 2.82074 1.23016 4.58404 1.6387 6.26216C2.04724 7.94027 3.11137 9.40727 4.61481 10.365C3.48612 10.3309 2.38215 10.0415 1.39412 9.52067V9.60446C1.39311 11.1682 1.96075 12.6841 3.00056 13.8943C4.04037 15.1046 5.48816 15.9346 7.09784 16.2431C6.05228 16.5156 4.95492 16.5553 3.89068 16.3591C4.3449 17.704 5.22865 18.8803 6.41858 19.7237C7.60852 20.5672 9.04527 21.0359 10.5283 21.0642C8.01054 22.9478 4.90034 23.9695 1.69866 23.9646C1.13087 23.9638 0.563639 23.9307 0 23.8654C3.25256 25.8527 7.03616 26.9082 10.9005 26.9063Z" fill="#EAB454"/>
</svg>
