<svg width="35" height="33" viewBox="0 0 35 33" fill="none" xmlns="http://www.w3.org/2000/svg">
<g clip-path="url(#clip0)">
<path d="M17.325 2.97129C21.954 2.97129 22.5022 2.99062 24.3227 3.06797C26.0146 3.13887 26.9282 3.40957 27.5373 3.63516C28.3426 3.93164 28.9246 4.29258 29.5269 4.86621C30.136 5.44629 30.5082 5.99414 30.8196 6.76113C31.0564 7.34121 31.3407 8.21777 31.4151 9.82266C31.4963 11.5629 31.5166 12.085 31.5166 16.4871C31.5166 20.8957 31.4963 21.4178 31.4151 23.1516C31.3407 24.7629 31.0564 25.633 30.8196 26.2131C30.5082 26.9801 30.1293 27.5344 29.5269 28.108C28.9179 28.6881 28.3426 29.0426 27.5373 29.3391C26.9282 29.5647 26.0078 29.8354 24.3227 29.9062C22.4954 29.9836 21.9473 30.0029 17.325 30.0029C12.696 30.0029 12.1478 29.9836 10.3273 29.9062C8.63543 29.8354 7.72181 29.5647 7.11273 29.3391C6.30738 29.0426 5.72537 28.6816 5.12306 28.108C4.51398 27.5279 4.14176 26.9801 3.83045 26.2131C3.59358 25.633 3.30935 24.7564 3.2349 23.1516C3.15369 21.4113 3.13339 20.8893 3.13339 16.4871C3.13339 12.0785 3.15369 11.5564 3.2349 9.82266C3.30935 8.21133 3.59358 7.34121 3.83045 6.76113C4.14176 5.99414 4.52074 5.43984 5.12306 4.86621C5.73214 4.28613 6.30738 3.93164 7.11273 3.63516C7.72181 3.40957 8.6422 3.13887 10.3273 3.06797C12.1478 2.99062 12.696 2.97129 17.325 2.97129ZM17.325 0C12.6215 0 12.0328 0.0193359 10.1852 0.0966797C8.34443 0.174023 7.07889 0.457617 5.98254 0.863672C4.83882 1.28906 3.87106 1.8498 2.91006 2.77148C1.9423 3.68672 1.35352 4.6084 0.906856 5.69121C0.480498 6.7418 0.182725 7.94062 0.101514 9.69375C0.0203027 11.4598 0 12.0205 0 16.5C0 20.9795 0.0203027 21.5402 0.101514 23.2998C0.182725 25.0529 0.480498 26.2582 0.906856 27.3023C1.35352 28.3916 1.9423 29.3133 2.91006 30.2285C3.87106 31.1437 4.83882 31.7109 5.97577 32.1299C7.07889 32.5359 8.33766 32.8195 10.1784 32.8969C12.026 32.9742 12.6148 32.9936 17.3182 32.9936C22.0217 32.9936 22.6105 32.9742 24.458 32.8969C26.2988 32.8195 27.5644 32.5359 28.6607 32.1299C29.7977 31.7109 30.7654 31.1437 31.7264 30.2285C32.6874 29.3133 33.283 28.3916 33.7228 27.3088C34.1492 26.2582 34.447 25.0594 34.5282 23.3063C34.6094 21.5467 34.6297 20.9859 34.6297 16.5064C34.6297 12.027 34.6094 11.4662 34.5282 9.70664C34.447 7.95352 34.1492 6.74824 33.7228 5.7041C33.2965 4.6084 32.7077 3.68672 31.7399 2.77148C30.779 1.85625 29.8112 1.28906 28.6742 0.870117C27.5711 0.464062 26.3123 0.180469 24.4716 0.103125C22.6172 0.0193359 22.0285 0 17.325 0Z" fill="#EAB454"/>
<path d="M17.3249 8.02441C12.4116 8.02441 8.42554 11.8207 8.42554 16.5C8.42554 21.1793 12.4116 24.9756 17.3249 24.9756C22.2382 24.9756 26.2243 21.1793 26.2243 16.5C26.2243 11.8207 22.2382 8.02441 17.3249 8.02441ZM17.3249 21.9979C14.1374 21.9979 11.5522 19.5357 11.5522 16.5C11.5522 13.4643 14.1374 11.0021 17.3249 11.0021C20.5124 11.0021 23.0976 13.4643 23.0976 16.5C23.0976 19.5357 20.5124 21.9979 17.3249 21.9979Z" fill="#EAB454"/>
<path d="M28.6538 7.68916C28.6538 8.78487 27.7199 9.66788 26.5762 9.66788C25.4257 9.66788 24.4985 8.77842 24.4985 7.68916C24.4985 6.59346 25.4325 5.71045 26.5762 5.71045C27.7199 5.71045 28.6538 6.5999 28.6538 7.68916Z" fill="#EAB454"/>
</g>
<defs>
<clipPath id="clip0">
<rect width="34.65" height="33" fill="white"/>
</clipPath>
</defs>
</svg>
