<svg width="34" height="35" viewBox="0 0 34 35" fill="none" xmlns="http://www.w3.org/2000/svg">
<g clip-path="url(#clip0)">
<path d="M15.7827 4.63929C20.4112 4.5728 20.9595 4.58347 22.7808 4.63151C24.4735 4.6752 25.3907 4.92172 26.0028 5.12934C26.8121 5.40213 27.399 5.73996 28.0091 6.28149C28.6261 6.82911 29.0057 7.34922 29.3275 8.08039C29.5723 8.63335 29.8685 9.47 29.9649 11.0082C30.0699 12.6761 30.0974 13.1766 30.1576 17.3988C30.218 21.6272 30.2048 22.1282 30.1474 23.7923C30.095 25.3388 29.8227 26.1774 29.5938 26.7372C29.293 27.4773 28.9217 28.0144 28.3273 28.5732C27.7262 29.1383 27.1559 29.4866 26.3547 29.7825C25.7488 30.0077 24.8322 30.2805 23.1482 30.3727C21.3223 30.4731 20.7744 30.4996 16.1527 30.566C11.5243 30.6324 10.9759 30.6218 9.15456 30.5737C7.4619 30.53 6.54468 30.2835 5.93258 30.0759C5.12328 29.8031 4.53639 29.4653 3.9263 28.9237C3.30935 28.3761 2.92967 27.856 2.6079 27.1249C2.36312 26.5719 2.06692 25.7352 1.97052 24.197C1.86549 22.5291 1.83804 22.0287 1.77778 17.8065C1.71743 13.5781 1.73058 13.0771 1.78805 11.413C1.84043 9.86644 2.11272 9.02781 2.34162 8.46804C2.64239 7.72793 3.01374 7.19085 3.60813 6.63201C4.2092 6.0669 4.77952 5.71863 5.58071 5.4227C6.18663 5.19759 7.1032 4.92473 8.78716 4.83253C10.6064 4.73219 11.1542 4.70578 15.7827 4.63929ZM15.742 1.78946C11.0391 1.85701 10.4507 1.88402 8.60438 1.98474C6.76488 2.08536 5.50338 2.37554 4.41272 2.78074C3.27496 3.20517 2.31498 3.75689 1.36672 4.6547C0.4116 5.54642 -0.164492 6.43888 -0.596276 7.48385C-1.0082 8.49761 -1.28953 9.65171 -1.34673 11.3343C-1.40375 13.0293 -1.41638 13.5674 -1.35506 17.8638C-1.29374 22.1602 -1.26576 22.6977 -1.16047 24.3842C-1.05527 26.0645 -0.741032 27.2162 -0.300431 28.2116C0.161087 29.2499 0.762413 30.1254 1.74259 30.9894C2.716 31.8534 3.69141 32.3835 4.83397 32.769C5.94251 33.1426 7.20501 33.3965 9.04663 33.4442C10.895 33.4919 11.484 33.502 16.1869 33.4344C20.8898 33.3669 21.4783 33.3399 23.3245 33.2391C25.164 33.1385 26.4255 32.8483 27.5162 32.4431C28.6473 32.025 29.6072 31.4671 30.5555 30.5755C31.5039 29.6838 32.0867 28.7913 32.5117 27.7464C32.9237 26.7326 33.205 25.5785 33.2622 23.8959C33.3193 22.2071 33.3319 21.669 33.2706 17.3726C33.2093 13.0762 33.1813 12.5387 33.076 10.8522C32.9708 9.17193 32.6566 8.0202 32.216 7.02486C31.7747 5.98007 31.1733 5.10453 30.1932 4.2406C29.2198 3.37658 28.2443 2.84648 27.1018 2.46099C25.9932 2.08738 24.7307 1.83346 22.8891 1.78572C21.0339 1.73199 20.4449 1.7219 15.742 1.78946Z" fill="white"/>
<path d="M15.8516 9.48513C10.9389 9.55565 7.00527 13.254 7.0694 17.742C7.13352 22.23 11.1712 25.8139 16.0838 25.7434C20.9965 25.6729 24.9301 21.9745 24.866 17.4865C24.8019 12.9985 20.7642 9.41461 15.8516 9.48513ZM16.043 22.8874C12.8559 22.9331 10.2372 20.6088 10.1956 17.6971C10.154 14.7855 12.7052 12.3869 15.8924 12.3411C19.0795 12.2954 21.6982 14.6198 21.7398 17.5314C21.7814 20.4431 19.2302 22.8416 16.043 22.8874Z" fill="white"/>
<path d="M27.1746 9.00131C27.1896 10.0522 26.2679 10.9125 25.1243 10.929C23.974 10.9455 23.0347 10.1057 23.0198 9.06095C23.0048 8.01003 23.9265 7.14972 25.0701 7.1333C26.2137 7.11688 27.1597 7.95658 27.1746 9.00131Z" fill="white"/>
</g>
<defs>
<clipPath id="clip0">
<rect width="33.2364" height="33" fill="white" transform="translate(33.0597 0.994141) rotate(90)"/>
</clipPath>
</defs>
</svg>
