<svg width="34" height="33" viewBox="0 0 34 33" fill="none" xmlns="http://www.w3.org/2000/svg">
<g clip-path="url(#clip0)">
<path fill-rule="evenodd" clip-rule="evenodd" d="M33.3701 16.2998C33.469 25.0406 26.163 32.2324 17.0517 32.3631C7.94044 32.4937 0.474117 25.5137 0.375226 16.7729C0.276334 8.03199 7.58232 0.840197 16.6936 0.709552C25.8049 0.578907 33.2712 7.55888 33.3701 16.2998ZM17.417 12.3851C15.8196 13.0484 12.6276 14.4196 7.84103 16.4987C7.06344 16.8078 6.65763 17.1052 6.62361 17.3907C6.56612 17.8733 7.19699 18.0539 8.05608 18.2999C8.17294 18.3334 8.29401 18.368 8.41816 18.4048C9.26346 18.6554 10.4 18.9465 10.9892 18.9503C11.5236 18.9537 12.1176 18.7338 12.7711 18.2906C17.2317 15.3163 19.5346 13.8122 19.6799 13.7784C19.7824 13.7545 19.9244 13.7244 20.0218 13.8052C20.1192 13.8861 20.1115 14.042 20.1018 14.084C20.0424 14.3396 17.5993 16.5762 16.335 17.7336C15.9408 18.0944 15.6613 18.3503 15.6042 18.4087C15.4763 18.5394 15.3459 18.6632 15.2205 18.7822C14.4462 19.5171 13.8655 20.0682 15.2774 20.9344C15.9559 21.3506 16.4989 21.6951 17.0407 22.0387C17.6324 22.414 18.2225 22.7884 18.9859 23.2541C19.1804 23.3728 19.3662 23.4963 19.5473 23.6166C20.2361 24.0743 20.8549 24.4854 21.6128 24.4076C22.0532 24.3624 22.5041 23.9582 22.7219 22.7688C23.2367 19.958 24.2423 13.8695 24.4622 11.3634C24.4815 11.1438 24.451 10.8636 24.4276 10.7407C24.4042 10.6179 24.3563 10.443 24.188 10.3155C23.9886 10.1645 23.6831 10.1364 23.5466 10.1407C22.9262 10.16 21.9778 10.4913 17.417 12.3851Z" fill="white"/>
</g>
<defs>
<clipPath id="clip0">
<rect width="32.9983" height="31.6556" fill="white" transform="matrix(0.999897 -0.0143373 0.0113129 0.999936 0.196167 0.946106)"/>
</clipPath>
</defs>
</svg>
