<svg width="36" height="33" viewBox="0 0 36 33" fill="none" xmlns="http://www.w3.org/2000/svg">
<g clip-path="url(#clip0)">
<path d="M11.3281 33.1106C24.399 32.9232 31.4023 22.9256 31.2741 14.3473C31.2699 14.0691 31.2589 13.7848 31.2412 13.5069C32.6186 12.5679 33.8021 11.4123 34.7361 10.0944C33.4484 10.6396 32.078 11.0032 30.6716 11.1729C32.1426 10.3395 33.234 9.04777 33.7436 7.53714C32.3596 8.31252 30.8417 8.86725 29.255 9.17755C28.1674 8.15236 26.7397 7.4837 25.1926 7.27496C23.6455 7.06623 22.0652 7.32904 20.696 8.02277C19.3268 8.71649 18.2449 9.80249 17.6177 11.1129C16.9905 12.4232 16.8529 13.885 17.2261 15.2721C14.3989 15.1831 11.6251 14.5523 9.08427 13.4206C6.54346 12.2889 4.29245 10.6815 2.47715 8.70269C1.59111 10.1449 1.33873 11.84 1.77129 13.4437C2.20385 15.0473 3.28889 16.439 4.80591 17.336C3.67684 17.3195 2.56884 17.0577 1.57345 16.5724L1.57465 16.6528C1.59606 18.1526 2.18538 19.5983 3.24242 20.7442C4.29947 21.89 5.75901 22.6653 7.37294 22.9381C6.3314 23.2144 5.23473 23.2682 4.16779 23.0954C4.64124 24.3787 5.54176 25.4942 6.74366 26.2861C7.94556 27.078 9.38888 27.5069 10.8722 27.5129C8.38167 29.3555 5.28645 30.38 2.08504 30.4212C1.51729 30.4286 0.949645 30.4049 0.38513 30.3504C3.66584 32.2098 7.46418 33.1679 11.3281 33.1106Z" fill="white"/>
</g>
<defs>
<clipPath id="clip0">
<rect width="34.6499" height="31.6538" fill="white" transform="matrix(0.999897 -0.0143373 0.0149463 0.999888 0 0.583801)"/>
</clipPath>
</defs>
</svg>
